<svg xmlns="http://www.w3.org/2000/svg" viewBox="0 0 945 945"><defs><style>.cls-1{fill:#f5f5f5;}.cls-2{fill:#ff6e4b;}.cls-3{fill:#202225;}</style></defs><title>Asset 2</title><g id="Layer_2" data-name="Layer 2"><g id="Layer_1-2" data-name="Layer 1"><circle class="cls-1" cx="472.5" cy="472.5" r="472.5"/><path class="cls-2" d="M757.31,185.8A405.46,405.46,0,0,0,150.25,721.05L300.16,409.81a17.08,17.08,0,0,1,22.61-8.06l41.1,19.2A17.06,17.06,0,0,1,372,443.81L209.28,782.52q13.86,11.68,28.75,22.13L428.2,409.81a17.08,17.08,0,0,1,22.61-8.06l41.1,19.2a17.06,17.06,0,0,1,8.16,22.86L307.81,843.94A405.51,405.51,0,0,0,757.31,185.8Z"/><path class="cls-3" d="M511,651.07l-23,3.57L491.8,776l-41.58,6.43-3.86-121.34-23,3.56-1.11-38.31,87.61-13.56Z"/><path class="cls-3" d="M626.69,699.55c-4.22,30.24-20.53,61.62-53.65,66.74a49.23,49.23,0,0,1-42.93-14.76c-10.66-11.34-15.48-26.95-17.8-42a141.4,141.4,0,0,1,0-45c5.31-29.44,23.16-58.66,55.1-63.6,34.06-5.27,53.75,22.47,58.43,52.77A163.44,163.44,0,0,1,626.69,699.55Zm-58.33-58.32c-12.45,1.93-14.61,29.92-14.53,39.77a125.08,125.08,0,0,0,1.59,21.16c1.2,7.75,4.19,25.57,15.23,23.86,12.92-2,14.47-30.86,14.35-40.94a161.42,161.42,0,0,0-1.86-21.36C582,656.2,579.16,639.56,568.36,641.23Z"/><path class="cls-3" d="M669.8,588c39.69-6.15,65.72,14.36,71.78,53.59,3.31,21.37,1.42,46.44-7.8,66.14-11.58,24.64-29.41,35.34-55.95,39.45l-39,6-5-159.65Zm9.46,120.23c22.37-4.66,22.86-37.21,20.14-54.82-1.89-12.22-6.86-28.77-22.59-26.33Z"/><path class="cls-3" d="M863.22,663c-4.22,30.23-20.53,61.62-53.65,66.74a49.28,49.28,0,0,1-42.93-14.76c-10.66-11.34-15.48-27-17.8-42a141,141,0,0,1,0-45c5.31-29.45,23.16-58.66,55.1-63.61,34.06-5.27,53.75,22.47,58.43,52.77A163.51,163.51,0,0,1,863.22,663Zm-58.33-58.33c-12.45,1.93-14.61,29.92-14.53,39.77A124.92,124.92,0,0,0,792,665.56c1.2,7.75,4.19,25.57,15.23,23.86,12.92-2,14.47-30.86,14.35-40.94a161.72,161.72,0,0,0-1.86-21.36C818.51,619.6,815.69,603,804.89,604.63Z"/></g></g></svg>